/* XPM */
static char *_ce6a45771354835945c55ef780d7aacpwESki3tx47wewKc[] = {
/* columns rows colors chars-per-pixel */
"50 50 92 1 ",
"  c None",
". c black",
"X c #3D2A05",
"o c #3B3700",
"O c #232425",
"+ c #252627",
"@ c #282828",
"# c gray17",
"$ c #302C34",
"% c #303132",
"& c #323334",
"* c #373737",
"= c #393939",
"- c #4C3506",
"; c #4E3606",
": c #4E370B",
"> c #4C4706",
", c #7F786A",
"< c #FF3131",
"1 c #FF3632",
"2 c #958C0F",
"3 c #B5A800",
"4 c #B7AA00",
"5 c #BB8D32",
"6 c #BAAF20",
"7 c #BDB43C",
"8 c #CC8E11",
"9 c #C5B700",
"0 c #C6B90E",
"q c #FFB115",
"w c #FF8D3E",
"e c #FFB624",
"r c #FFB625",
"t c #FFBB33",
"y c #FFBB34",
"u c #F6E500",
"i c #F8E812",
"p c #F9E917",
"a c #FFEF15",
"s c #F8E91C",
"d c #FAEB1F",
"f c #FFC526",
"g c #EFDB37",
"h c #FBED2C",
"j c #FCEE34",
"k c #FDEF39",
"l c #F8EB3D",
"z c #FDF03F",
"x c #FFB945",
"c c #FFC044",
"v c #FFC852",
"b c #FFC954",
"n c #FFDC50",
"m c #FFE745",
"M c #FFE848",
"N c #FFE94B",
"B c #FFEC4C",
"V c #FFF242",
"C c #FFF14D",
"Z c #FFF34D",
"A c #FFF350",
"S c #FFF351",
"D c #FFF355",
"F c #FFF45C",
"G c #FFF45D",
"H c #FFF45F",
"J c #FFF465",
"K c #FFF568",
"L c #FFF56B",
"P c #FFF675",
"I c #FFF67B",
"U c #1E7CB8",
"Y c #707888",
"T c #2996DB",
"R c #5AAEE4",
"E c #838689",
"W c #8E9194",
"Q c gray58",
"! c gray59",
"~ c #949EA8",
"^ c gray63",
"/ c #A2A2A2",
"( c #FFF784",
") c #FFF788",
"_ c #FFF789",
"` c #FFF78E",
"' c #FFF898",
"] c #FFF9A7",
"[ c #BBBFC3",
"{ c #C5C5C5",
"} c #D5D5D5",
"| c white",
/* pixels */
"UU~~~~~         ~~~~~          ~~~~~         ~~~~Y",
"UU~}}}~~~~~~~~~~~}}}~~~~~~~~~~~~}}}~~~~~~~~~~~}}}Y",
"UU~}}}~}}}}}}}}}~}}}~}}}}}}}}}}~}}}~}}}}}}}}}~}}}Y",
"UU~}}}~}}}}}}}}}~}}}~}}}}}}}}}}~}}}~}}}}}}}}}~}}}Y",
"UUYYYYY}}}}}}}}}Y~~~Y}}}}}}}}}}Y~~~Y}}}}}}}}}YYYYY",
"UU~}}}YYYYYYYYYYY~~~YYYYYYYYYYYY~~~YYYYYYYYYY~}}}Y",
"UU~}}}YYYYYYYYYYYYYYYYYYYYYYYYYYYYYYYYYYYYYYY~}}}Y",
"UU~}}}Y~~~~~~~~~~YYYYYY~~~~~~~~~~YYYYYY~~~~~~~}}}Y",
"UU~}}}Y~~~~~~~~~~Y~~~YY~~~~~~~~~~Y~~~YY~~~~~~~}}}Y",
"TU~}}}Y~~~~~~~~~~Y~~~~Y~~~~~~~~~~Y~~~~Y~~~~~~~}}}Y",
"RU~}}}Y~~~~~~}}}}[}}}}[}}}}}}}}}}[}}}}[}}}}}}~}}}Y",
"TT~}}}Y~~~~}}}}}}[}}}}[}}}}}}}}}}[}}}}[}}}}}}~}}}Y",
"UR~}}}Y~~~~}}}}}}[}}}}[}}}}}}}}}}[}}}}[}}}}}}~}}}Y",
"UT~}}}Y~~~}}}}}}}[}}}}[}}}}}}}}}}[}}}}[}}}}}}~}}}Y",
"UU~~~~Y~~~}}}}}}[[}}}}[}}}}}}}}}[[}}}}[}}}}}}~~~~Y",
"UT~}}}YYYY[[[[[[[[&...........[[[[[[[[[[[[[[[~}}}Y",
"UU~}}}Y~~~}}[}}}}[=...........}}}[}}}}[}}}}}[~}}}Y",
"UU~}}}Y~~~}}[}}}*%244447777644**}[}}}}[}}}}}[~}}}Y",
"UTYYYYY~~~}}[}}}..4uuuuSSSShuu..}[}}}}[}}}}}[YYYYY",
"UUYYYYYY~~}}[}//oo0isllJJSSjiiXXWW{}}}[[}}}}[YYYYY",
"UT~}}}YYYY[[[[..uukZP||]]ZZZZZqq..!}}}[[[[[[[~}}}Y",
"UT~}}}YY~~}}}}..uukZP||]]SZZZZqq..Q}}}[[}}}}}~}}}Y",
"UU~}}}Y~~~}...uuZZ('`LL<<BZZZZZZqq;.@[[}}}}}}~}}}Y",
"TU~}}}Y~~~}...uuZZ('`LL<<BZZZZZZqq;.O[[}}}}}}~}}}Y",
"UU~}}}Y~~~}...uu__LFb11<<BZZZZZZqq;.@[[}}}}}}~}}}Y",
"UU~}}}Y~~~}...uu__JFv<<<<BZZZZZZqq;.@}[}}}}}}~}}}Y",
"UU~}}}Y~~~}...hdIIJSnww<<BZZZZZZqq-.@}[}}}}}}~}}}Y",
"UU~}}}Y~~~}...zzLLDZZZZ<<BZZZZZZqq;.@}[}}}}}}~}}}Y",
"UU~}}}Y~~~}...VVLLDZZZZ<<BZZZZZZqq-.@}[}}}}}}~}}}Y",
"UU~~~~Y~~~}...AAZZZZZZZ<<BZZZZZZee:.@}[}}}}}}~~~~Y",
"UU~}}}Y~~~}...AAZZZZZZZ<<BZZZZZZee:.@}[}}}}}}~}}}Y",
"UU~}}}YYYY[...aaZZZZZZZ<<BZZZZZZqq-.O[[[[[[[[~}}}Y",
"UU~}}}Y~~~}...aaZZZZZZZ<<BZZZZZZqq-.@}[}}}}}[~}}}Y",
"UUYYYYY~~~}!E!>>ppzZZZZxxZZZZZff--,!^}[}}}}}[YYYYY",
"UUYYYYY~~~}}[}..uuzZZZZZZZZZZZqq..!}}}[}}}}}[YYYYY",
"UU~}}}YY~~}}[}##99gNNNNmmNmNmN88++^}}}[[}}}}[~}}}Y",
"UU~}}}YYYY[[[[[[..5ccccretyyyy..[[}}}}[[[[[[[~}}}Y",
"UU~}}}YY~~}}}}}}..5ccccretyyyy..[[}}}}[[}}}}}~}}}Y",
"UU~}}}Y~~~}}}}}}}[=...........}}}[}}}[[}}}}}}~}}}Y",
"UU~}}}Y~~~}}}}}}}[&...........}}}[[[[[[}}}}}}~}}}Y",
"UU~}}}Y~~~}}}}}}}[}}}[[}}}}}}}}}}[}}}[[}}}}}}~}}}Y",
"UU~}}}Y~~~}}}}}}}[}}}}[}}}}}}}}}}[}}}}[}}}}}}~}}}Y",
"UU~}}}Y~~~}}}}}}}[}}}}[}}}}}}}}}}[}}}}[}}}}}}~}}}Y",
"UU~~~~~~~~}}}}}}~~~~~}[}}}}}}}}~~~~~}}[}}}}}}~~~~Y",
"UU~}}}~~~~~~~~~~~}}}~~~~~~~~~~~~}}}~~~~~~~~~~~}}}Y",
"UU~}}}~}}}}}}}}}~}}}~}}}}}}}}}}~}}}~}}}}}}}}}~}}}Y",
"UU~}}}~}}}}}}}}}~}}}~}}}}}}}}}}~}}}~}}}}}}}}}~}}}Y",
"UUYYYYY}}}}}}}}}YYYYY}}}}}}}}}}YYYYY}}}}}}}}}YYYYY",
"UU$YY~YYYYYYYYYYY~~~YYYYYYYYYYYY~~~YYYYYYYYYYY~YY$",
"UU$Y~~Y~~~~~~~~~Y~~~Y~~~~~~~~~~Y~~~Y~~~~~~~~~Y~~Y$"
};
