/* XPM */
static char *_69affd0fa91485fd90cdb597cf8d21cthjc3F1RDg3t0Re8[] = {
/* columns rows colors chars-per-pixel */
"50 50 150 2 ",
"   c None",
".  c #010000",
"X  c #090606",
"o  c #0D0C0C",
"O  c #140C0C",
"+  c #190F0F",
"@  c #130D07",
"#  c #1A120C",
"$  c #141414",
"%  c #1D1212",
"&  c #1B1B1B",
"*  c #231616",
"=  c #261818",
"-  c #2C1B1B",
";  c #321E1E",
":  c #3C2A04",
">  c #33211C",
",  c #232323",
"<  c #2B2425",
"1  c gray17",
"2  c #352121",
"3  c #3B2525",
"4  c #342729",
"5  c #362C2D",
"6  c #302C34",
"7  c #323232",
"8  c #393030",
"9  c #393639",
"0  c #3D3D3D",
"q  c #33353C",
"w  c #493213",
"e  c #402727",
"r  c #432A25",
"t  c #442A2A",
"y  c #492E2E",
"u  c #4C3123",
"i  c #523422",
"p  c #4E3131",
"a  c #423537",
"s  c #533434",
"d  c #5C3B3B",
"f  c #623F3D",
"g  c #795606",
"h  c #654612",
"j  c #574526",
"k  c #4A4333",
"l  c #634225",
"z  c #674B2F",
"x  c #675125",
"c  c #694C30",
"v  c #624139",
"b  c #6D4A3C",
"n  c #6E5231",
"m  c #725038",
"M  c #434445",
"N  c #42454A",
"B  c #46494D",
"V  c #4B4B4B",
"C  c #484444",
"Z  c #4B4E52",
"A  c #4F5052",
"S  c #545455",
"D  c #555758",
"F  c #57585A",
"G  c #5C5C5C",
"H  c #644040",
"J  c #694343",
"K  c #615340",
"L  c #615C52",
"P  c #70624C",
"I  c #66625F",
"U  c #5B5D65",
"Y  c #5C5D69",
"T  c #5F636A",
"R  c #636262",
"E  c #6A6666",
"W  c #6E6B6B",
"Q  c #66666C",
"!  c #726A6A",
"~  c #676E7C",
"^  c #69707F",
"/  c #757575",
"(  c #74787F",
")  c #7E7E7F",
"_  c #885C1B",
"`  c #9A6D1C",
"'  c #A46F17",
"]  c #A47117",
"[  c #AC7C1E",
"{  c #865C22",
"}  c #8B5F21",
"|  c #8B6228",
" . c #8B6023",
".. c #996C2A",
"X. c #9B752B",
"o. c #8C6636",
"O. c #8B663F",
"+. c #94743D",
"@. c #A27E3D",
"#. c #987542",
"$. c #BF8812",
"%. c #B38635",
"&. c #C48E1F",
"*. c #CC8D19",
"=. c #F5AE1C",
"-. c #C98F25",
";. c #DCA024",
":. c #DDA232",
">. c #F5AF21",
",. c #F6B32D",
"<. c #F6B634",
"1. c #F7B83D",
"2. c #BE914E",
"3. c #A69672",
"4. c #BCA87C",
"5. c #F7BA40",
"6. c #F8BE4C",
"7. c #E7B753",
"8. c #E4B45D",
"9. c #EBB651",
"0. c #FACC74",
"q. c #1E7CB8",
"w. c #6D7584",
"e. c #717886",
"r. c #707888",
"t. c #7D8287",
"y. c #2996DB",
"u. c #5AAEE4",
"i. c #808080",
"p. c #80888F",
"a. c #89898A",
"s. c #838A93",
"d. c #868F98",
"f. c #879099",
"g. c #89929B",
"h. c #909090",
"j. c #9D9C9C",
"k. c #A09D9D",
"l. c #949EA8",
"z. c #919AA4",
"x. c #ABAFB2",
"c. c #ACB0B3",
"v. c #B6B7B8",
"b. c #DBCFB7",
"n. c #EFD4A3",
"m. c #BBBFC3",
"M. c #C2C2C2",
"N. c #CACACA",
"B. c #D9D5CF",
"V. c #D5D5D5",
/* pixels */
"q.q.l.l.l.l.l.                  l.l.l.l.l.                    l.l.l.l.l.                  l.l.l.l.r.",
"q.q.l.V.V.V.l.l.l.l.l.l.l.l.l.l.l.V.V.V.l.l.l.l.l.l.l.l.l.l.l.l.V.V.V.l.l.l.l.l.l.l.l.l.l.l.V.V.V.r.",
"q.q.l.V.V.V.l.V.V.V.V.V.V.V.V.V.l.V.V.V.l.V.V.V.V.V.V.V.V.V.V.l.V.V.V.l.V.V.V.V.V.V.V.V.V.l.V.V.V.r.",
"q.q.l.V.V.V.l.V.V.V.V.V.V.V.j.< X . , 0 V T W / i./ / W a.N.V.l.V.V.V.l.V.V.V.V.V.V.V.V.V.l.V.V.V.r.",
"q.q.r.r.r.r.r.V.V.V.V.V.V.V.k.4 O O < 0 Z S S I / Q D V G h.v.w.l.l.l.r.V.V.V.V.V.V.V.V.V.r.r.r.r.r.",
"q.q.l.V.V.V.r.r.r.r.r.r.r.r.Y 4 - = 5 M V M 7 M G V 9 , 1 V T w.l.z.l.r.r.r.r.r.r.r.r.r.r.l.V.V.V.r.",
"q.q.l.V.V.V.r.r.r.r.r.r.r.r.Y < * = 4 7 1 9 V M 1 1 1 k V V T ( r.r.r.r.r.r.r.r.r.r.r.r.r.l.V.V.V.r.",
"q.q.l.V.V.V.r.l.l.l.l.l.z.d.Q 4 - - - , $ , V 7 X o , V D V G / t.w.r.r.r.r.r.l.l.l.l.l.l.l.V.V.V.r.",
"q.q.l.V.V.V.r.l.l.l.l.l.d.S 9 d s e - % o o $ $ . X o $ 1 C D E S V t.l.l.t.r.l.l.l.l.l.l.l.V.V.V.r.",
"y.q.l.V.V.V.r.l.l.l.l.l.s.9 ; J f t ; * X . . . . . . . $ 7 M D A A t.l.l.l.r.l.l.l.l.l.l.l.V.V.V.r.",
"u.q.l.V.V.V.r.l.l.l.l.l.s.C - f f t 3 = X . . . . . . . . X 1 V I ) v.V.V.V.m.V.V.V.V.V.V.l.V.V.V.r.",
"y.y.l.V.V.V.r.l.l.l.l.j.E 8 2 d s 3 3 ; % o . . . . . . . . $ 1 M G / j.N.V.m.V.V.V.V.V.V.l.V.V.V.r.",
"q.u.l.V.V.V.r.l.l.l.l.R X - t s y ; 3 3 ; % . . . . . . . . . . , 1 1 G m.V.m.V.V.V.V.V.V.l.V.V.V.r.",
"q.y.l.V.V.V.r.l.l.l.V.G X - t s y 3 3 2 - % X . . . . . . . . . 1 M M / N.V.m.V.V.V.V.V.V.l.V.V.V.r.",
"q.q.l.l.l.l.r.l.l.l.b.L X - t s y 3 3 2 - + . . . . . . . . . . 7 A G a.N.V.m.V.V.V.V.V.V.l.l.l.l.r.",
"q.y.l.V.V.V.r.r.r.r.7.x . - t d y 2 3 2 % O . . . . . . . . . . , 0 R p.v.m.m.m.m.m.m.m.m.l.V.V.V.r.",
"q.q.l.V.V.V.r.l.l.l.<.X.j n m d y ; 2 2 % X . . . . . . . . . . $ 1 V ) M.V.m.V.V.V.V.V.m.l.V.V.V.r.",
"q.q.l.V.V.V.r.l.l.l.1.9.8.8.2.b y 2 3 2 * X . . . . . . . . . . $ & & S b.V.m.V.V.V.V.V.m.l.V.V.V.r.",
"q.y.r.r.r.r.r.l.l.l.;.%.+.#.#.d y 3 3 2 + X . . . . . . . . . . $ & & S m.V.m.V.V.V.V.V.m.r.r.r.r.r.",
"q.q.r.r.r.r.r.r.l.l.$.h * 2 t s y 3 3 ; O . . . . . . . . . . . $ , , F m.V.m.m.V.V.V.V.m.r.r.r.r.r.",
"q.y.l.V.V.V.r.r.r.r.4.K % ; t s y 2 3 3 O . . . . . . . . . . . $ , , G M.V.m.m.m.m.m.m.m.z.V.V.V.r.",
"q.y.l.V.V.V.r.r.l.l.V.E % 2 t s y 2 3 3 + . . . . . . . . . . . & , 1 T M.V.m.m.V.V.V.V.V.l.V.V.V.r.",
"q.q.l.V.V.V.r.l.l.l.V.E % e p t t y e 3 - + . . . . . . . . . . & 1 7 R M.m.m.V.V.V.V.V.V.l.V.V.V.r.",
"y.q.l.V.V.V.r.l.l.z.V.E * 3 y t y p t 3 - + X . . . . . . . . . & 1 1 G c.m.m.V.V.V.V.V.V.l.V.V.V.r.",
"q.q.l.V.V.V.r.l.l.l.V.E + ; t s s p t 3 - + . . . . . . . . . . $ 1 1 G M.m.m.V.V.V.V.V.V.l.V.V.V.r.",
"q.q.l.V.V.V.r.l.l.l.V.E % ; e y 3 - 3 3 - + . . . . . . . . . . $ , , G M.V.m.V.V.V.V.V.V.l.V.V.V.r.",
"q.q.l.V.V.V.r.l.l.l.V.E % ; 3 3 - # > 3 - O X . . . . . . . . . o & = D M.V.m.V.V.V.V.V.V.l.V.V.V.r.",
"q.q.l.V.V.V.r.l.l.l.V.! * 3 e 3 c @.z 3 * + . . . . . . . . . . $ , 1 T M.V.m.V.V.V.V.V.V.l.V.V.V.r.",
"q.q.l.V.V.V.r.l.l.l.V.! - 3 t e o.6.o.2 * + . . . . . . . . . . & 1 1 R M.V.m.V.V.V.V.V.V.l.V.V.V.r.",
"q.q.l.l.l.l.r.l.l.l.V.! - t s e  .>.{ ; * O . . . . . . . . . . , 7 1 F M.V.m.V.V.V.V.V.V.l.l.l.l.r.",
"q.q.l.V.V.V.r.l.l.l.V.! * t y e } =._ - * O . . . . . . . . . . & 1 , G M.V.m.V.V.V.V.V.V.l.V.V.V.r.",
"q.q.l.V.V.V.r.r.r.r.m.R * t y e | ,.{ - + X . . . . . . . . . . o $ , D x.m.m.m.m.m.m.m.m.l.V.V.V.r.",
"q.q.l.V.V.V.r.l.l.l.V.E = 3 t e l ..l - + . . . . . . . . . . . o & , G M.V.m.V.V.V.V.V.m.l.V.V.V.r.",
"q.q.r.r.r.r.r.l.l.l.V.! = 3 e 3 3 3 3 2 + . . . . . . . . . . . o & , G M.V.m.V.V.V.V.V.m.w.r.r.r.r.",
"q.q.r.r.r.r.r.l.l.l.V.! = e e - - 2 t t % X . . . . . . . . . . o $ & F m.V.m.V.V.V.V.V.m.r.r.r.r.r.",
"q.q.l.V.V.V.r.r.l.l.V.E * 3 e = = 2 t p - o . . . . . . . . . . o $ & F m.V.m.m.V.V.V.V.m.l.V.V.V.r.",
"q.q.l.V.V.V.r.r.r.r.m.G + 3 t 3 - - t t - + . . . . . . . . . . o $ , G b.V.m.m.m.m.m.m.m.l.V.V.V.r.",
"q.q.l.V.V.V.r.r.l.l.V.R + 3 y 3 2 * 3 y - % X . . . . . . . . . o & & F m.V.m.m.V.V.V.V.V.l.V.V.V.r.",
"q.q.l.V.V.V.r.l.l.l.V.R O 3 y 3 - * 3 p 3 * . . . . . . . . . . o $ $ A m.m.m.V.V.V.V.V.V.l.V.V.V.r.",
"q.q.l.V.V.V.r.l.l.l.V.R O 3 y t ; * 3 t 2 % X . . . . . . . . . $ & & A x.m.m.V.V.V.V.V.V.l.V.V.V.r.",
"q.q.l.V.V.V.r.l.l.l.B.R + 3 y e ; - 3 e ; % X . . . . . . . . . $ & , G M.m.m.V.V.V.V.V.V.l.V.V.V.r.",
"q.q.l.V.V.V.r.l.l.l.n.P O 3 y 3 ; - ; 3 - * . . . . . . . . . . $ & , G M.V.m.V.V.V.V.V.V.l.V.V.V.r.",
"q.q.l.V.V.V.r.l.l.l.0.#.w l l r 3 2 3 ; - % . . . . . . . . . . $ , , D M.V.m.V.V.V.V.V.V.l.V.V.V.r.",
"q.q.l.l.l.l.l.l.l.l.5.:.-.*.' i y s t 3 ; % X . . . . . . . . . & 1 & M M.V.m.V.V.V.V.V.V.l.l.l.l.r.",
"q.q.l.V.V.V.l.l.l.l.&.[ ` ] _ i t p t 3 * + . . . . . . . . . . & 1 & N d.l.l.l.l.l.l.l.l.l.V.V.V.r.",
"q.q.l.V.V.V.l.V.V.V.g : @ > r 3 3 ; 3 ; + . . . . . . . . . . . $ , & M M.V.V.V.V.V.V.V.V.l.V.V.V.r.",
"q.q.l.V.V.V.l.V.V.V.3.k X - e 3 2 ; ; 3 * o . . . . . . . . . . & 1 , B M.V.V.V.V.V.V.V.V.l.V.V.V.r.",
"q.q.r.r.r.r.r.V.V.V.V.G X ; e 3 ; * ; ; - % . . . . . . . . . . & 1 1 N M.V.V.V.V.V.V.V.V.r.r.r.r.r.",
"q.q.6 r.r.l.r.r.r.r.r.9 X * - * % + O + * % . . . . . . . . . . $ 1 1 N w.r.r.r.r.r.r.r.r.r.l.r.r.6 ",
"q.q.6 r.l.l.r.l.l.l.l.B X % * + O X . X % % X . . . . . . . . . $ , 1 N d.l.l.l.l.l.l.l.l.r.l.l.r.6 "
};
