/* XPM */
static char *_c3bbe787d7f4ee3b30d989dbdac0ab8wXmSSSfWnqhgGCGp[] = {
/* columns rows colors chars-per-pixel */
"50 50 9 1 ",
"  c None",
". c #302C34",
"X c #1E7CB8",
"o c #707888",
"O c #2996DB",
"+ c #5AAEE4",
"@ c #949EA8",
"# c #BBBFC3",
"$ c #D5D5D5",
/* pixels */
"XX@@@@@         @@@@@          @@@@@         @@@@o",
"XX@$$$@@@@@@@@@@@$$$@@@@@@@@@@@@$$$@@@@@@@@@@@$$$o",
"XX@$$$@$$$$$$$$$@$$$@$$$$$$$$$$@$$$@$$$$$$$$$@$$$o",
"XX@$$$@$$$$$$$$$@$$$@$$$$$$$$$$@$$$@$$$$$$$$$@$$$o",
"XXooooo$$$$$$$$$o@@@o$$$$$$$$$$o@@@o$$$$$$$$$ooooo",
"XX@$$$ooooooooooo@@@oooooooooooo@@@oooooooooo@$$$o",
"XX@$$$ooooooooooooooooooooooooooooooooooooooo@$$$o",
"XX@$$$o@@@@@@@@@@oooooo@@@@@@@@@@oooooo@@@@@@@$$$o",
"XX@$$$o@@@@@@@@@@o@@@oo@@@@@@@@@@o@@@oo@@@@@@@$$$o",
"OX@$$$o@@@@@@@@@@o@@@@o@@@@@@@@@@o@@@@o@@@@@@@$$$o",
"+X@$$$o@@@@@@$$$$#$$$$#$$$$$$$$$$#$$$$#$$$$$$@$$$o",
"OO@$$$o@@@@$$$$$$#$$$$#$$$$$$$$$$#$$$$#$$$$$$@$$$o",
"X+@$$$o@@@@$$$$$$#$$$$#$$$$$$$$$$#$$$$#$$$$$$@$$$o",
"XO@$$$o@@@$$$$$$$#$$$$#$$$$$$$$$$#$$$$#$$$$$$@$$$o",
"XX@@@@o@@@$$$$$$##$$$$#$$$$$$$$$##$$$$#$$$$$$@@@@o",
"XO@$$$oooo###################################@$$$o",
"XX@$$$o@@@$$#$$$$#$$$$#$$$$$#$$$$#$$$$#$$$$$#@$$$o",
"XX@$$$o@@@$$#$$$$#$$$$#$$$$$#$$$$#$$$$#$$$$$#@$$$o",
"XOooooo@@@$$#$$$$#$$$$#$$$$$#$$$$#$$$$#$$$$$#ooooo",
"XXoooooo@@$$#$$$##$$$$##$$$$#$$$##$$$$##$$$$#ooooo",
"XO@$$$oooo########$$$$############$$$$#######@$$$o",
"XO@$$$oo@@$$$$$$##$$$$##$$$$$$$$##$$$$##$$$$$@$$$o",
"XX@$$$o@@@$$$$$$$#$$$##$$$$$$$$$$#$$$##$$$$$$@$$$o",
"OX@$$$o@@@$$$$$$$######$$$$$$$$$$######$$$$$$@$$$o",
"XX@$$$o@@@$$$$$$$#$$$##$$$$$$$$$$#$$$##$$$$$$@$$$o",
"XX@$$$o@@@$$$$$$$#$$$$#$$$$$$$$$$#$$$$#$$$$$$@$$$o",
"XX@$$$o@@@$$$$$$$#$$$$#$$$$$$$$$$#$$$$#$$$$$$@$$$o",
"XX@$$$o@@@$$$$$$$#$$$$#$$$$$$$$$$#$$$$#$$$$$$@$$$o",
"XX@$$$o@@@$$$$$$$#$$$$#$$$$$$$$$$#$$$$#$$$$$$@$$$o",
"XX@@@@o@@@$$$$$$$#$$$$#$$$$$$$$$$#$$$$#$$$$$$@@@@o",
"XX@$$$o@@@$$$$$$##$$$$#$$$$$$$$$##$$$$#$$$$$$@$$$o",
"XX@$$$oooo###################################@$$$o",
"XX@$$$o@@@$$#$$$$#$$$$#$$$$$#$$$$#$$$$#$$$$$#@$$$o",
"XXooooo@@@$$#$$$$#$$$$#$$$$$#$$$$#$$$$#$$$$$#ooooo",
"XXooooo@@@$$#$$$$#$$$$#$$$$$#$$$$#$$$$#$$$$$#ooooo",
"XX@$$$oo@@$$#$$$##$$$$##$$$$#$$$##$$$$##$$$$#@$$$o",
"XX@$$$oooo########$$$$############$$$$#######@$$$o",
"XX@$$$oo@@$$$$$$##$$$$##$$$$$$$$##$$$$##$$$$$@$$$o",
"XX@$$$o@@@$$$$$$$#$$$##$$$$$$$$$$#$$$##$$$$$$@$$$o",
"XX@$$$o@@@$$$$$$$######$$$$$$$$$$######$$$$$$@$$$o",
"XX@$$$o@@@$$$$$$$#$$$##$$$$$$$$$$#$$$##$$$$$$@$$$o",
"XX@$$$o@@@$$$$$$$#$$$$#$$$$$$$$$$#$$$$#$$$$$$@$$$o",
"XX@$$$o@@@$$$$$$$#$$$$#$$$$$$$$$$#$$$$#$$$$$$@$$$o",
"XX@@@@@@@@$$$$$$@@@@@$#$$$$$$$$@@@@@$$#$$$$$$@@@@o",
"XX@$$$@@@@@@@@@@@$$$@@@@@@@@@@@@$$$@@@@@@@@@@@$$$o",
"XX@$$$@$$$$$$$$$@$$$@$$$$$$$$$$@$$$@$$$$$$$$$@$$$o",
"XX@$$$@$$$$$$$$$@$$$@$$$$$$$$$$@$$$@$$$$$$$$$@$$$o",
"XXooooo$$$$$$$$$ooooo$$$$$$$$$$ooooo$$$$$$$$$ooooo",
"XX.oo@ooooooooooo@@@oooooooooooo@@@ooooooooooo@oo.",
"XX.o@@o@@@@@@@@@o@@@o@@@@@@@@@@o@@@o@@@@@@@@@o@@o."
};
