/* XPM */
static char *image__2_1680535447[] = {
/* columns rows colors chars-per-pixel */
"50 50 167 2 ",
"   c None",
".  c #000000",
"X  c #0B0202",
"o  c #030C05",
"O  c #0A0B0B",
"+  c #130202",
"@  c #190907",
"#  c #041007",
"$  c #05170B",
"%  c #1D120C",
"&  c #090C10",
"*  c #0D1115",
"=  c #12181F",
"-  c #1B1B1B",
";  c #171718",
":  c #270303",
">  c #340000",
",  c #3C0101",
"<  c #21130D",
"1  c #33100F",
"2  c #321312",
"3  c #07200F",
"4  c #0A2412",
"5  c #0B2B16",
"6  c #16291C",
"7  c #0C3319",
"8  c #0E3C1C",
"9  c #12331B",
"0  c #3D3107",
"q  c #2E221B",
"w  c #3A2D1D",
"e  c #2B2405",
"r  c #131A21",
"t  c #113F22",
"y  c #1E2833",
"u  c #232323",
"i  c #2E2825",
"p  c #2A2A2A",
"a  c #2D322F",
"s  c #272C35",
"d  c #302C34",
"f  c #25323F",
"g  c #323332",
"h  c #3C3C3C",
"j  c #37393D",
"k  c #430101",
"l  c #560E0E",
"z  c #471111",
"x  c #591819",
"c  c #6B1819",
"v  c #731A1A",
"b  c #4D3000",
"n  c #593802",
"m  c #473824",
"M  c #6F2728",
"N  c #782324",
"B  c #0F401F",
"V  c #104521",
"C  c #124A24",
"Z  c #16592D",
"A  c #15572B",
"S  c #175F30",
"D  c #20472D",
"F  c #3A403C",
"G  c #244B31",
"H  c #1A6333",
"J  c #1C6D38",
"K  c #1D723B",
"L  c #1F783E",
"P  c #226D3C",
"I  c #554032",
"U  c #794E22",
"Y  c #6A4637",
"T  c #754B38",
"R  c #7B512C",
"E  c #2B3A49",
"W  c #303D4A",
"Q  c #394552",
"!  c #207E42",
"~  c #394D61",
"^  c #4C4D4C",
"/  c #4D5650",
"(  c #585959",
")  c #705751",
"_  c #75645B",
"`  c #415970",
"'  c #4B5D70",
"]  c #4A647F",
"[  c #526579",
"{  c #7B7B7B",
"}  c #757779",
"|  c #6B696B",
" . c #962E2F",
".. c #A03B3B",
"X. c #945C04",
"o. c #875C21",
"O. c #81563A",
"+. c #924D34",
"@. c #A25A3D",
"#. c #9E712F",
"$. c #AD7B33",
"%. c #954140",
"&. c #855C41",
"*. c #A04746",
"=. c #9F6041",
"-. c #AE6746",
";. c #B07351",
":. c #AF7666",
">. c #248646",
",. c #268D4B",
"<. c #2A9B53",
"1. c #2EAE5C",
"2. c #2EB15E",
"3. c #34A45E",
"4. c #35B865",
"5. c #42BB71",
"6. c #44B46F",
"7. c #44C877",
"8. c #49D47F",
"9. c #BF8349",
"0. c #DE935C",
"q. c #C28648",
"w. c #CB8B62",
"e. c #DB9364",
"r. c #1E7CB8",
"t. c #4D6782",
"y. c #526B85",
"u. c #526F8D",
"i. c #53708E",
"p. c #567594",
"a. c #5C7997",
"s. c #707888",
"d. c #5E7FA1",
"f. c #5F81A3",
"g. c #6386AA",
"h. c #6385A9",
"j. c #688CB2",
"k. c #678BB0",
"l. c #6B90B7",
"z. c #6D93BB",
"x. c #7B95B0",
"c. c #5ADC8E",
"v. c #2996DB",
"b. c #7099C2",
"n. c #759EC9",
"m. c #79A3CF",
"M. c #77A1CC",
"N. c #7CA8D5",
"B. c #7AA5D1",
"V. c #5AAEE4",
"C. c #8E8C8E",
"Z. c #9A9B9B",
"A. c #B79682",
"S. c #B8A297",
"D. c #949EA8",
"F. c #A3A4A3",
"G. c #F0B28B",
"H. c #EDB490",
"J. c #C9B0A3",
"K. c #BFC0BF",
"L. c #FAC8AA",
"P. c #BBBFC3",
"I. c #CACBCA",
"U. c #D5D5D5",
"Y. c #FFDFCE",
"T. c #F5D5C4",
"R. c #F1F1F1",
/* pixels */
"r.r.D.D.D.D.D.                  D.D.D.D.D.                    D.D.D.D.D.                  D.D.D.D.s.",
"r.r.D.U.U.U.D.D.D.D.D.D.D.D.D.D.D.U.U.U.D.D.D.D.D.D.D.D.D.D.D.D.U.U.U.D.D.D.D.D.D.D.D.D.D.D.U.U.U.s.",
"r.r.D.U.U.U.D.U.U.U.U.U.U.U.U.U.D.U.U.U.D.U.U.U.U.U.U.U.U.U.U.D.U.U.U.D.U.U.U.U.U.U.U.U.U.D.U.U.U.s.",
"r.r.D.U.U.U.D.U.U.U.U.U.U.U.U.U.D.U.U.U.D.U.U.U.U.U.U.U.U.U.U.D.U.U.U.D.U.U.U.U.U.U.U.U.U.D.U.U.U.s.",
"r.r.s.s.s.s.s.U.U.U.U.U.U.U.U.U.s.D.D.D.s.U.U.U.U.U.U.U.U.U.U.s.D.D.D.s.U.U.U.U.U.U.U.U.U.s.s.s.s.s.",
"r.r.D.U.U.U.s.s.s.s.s.s.s.s.s.s.s.D.D.D.s.s.s.s.s.s.s.s.s.s.s.s.D.D.D.s.s.s.s.s.s.s.s.s.s.D.U.U.U.s.",
"r.r.D.U.U.U.s.s.s.s.s.s.s.s.s.s.s.s.s.s.s.s.s.s.s.s.s.s.s.s.s.s.s.s.s.s.s.s.s.s.s.s.s.s.s.D.U.U.U.s.",
"r.r.D.U.U.U.s.D.D.D.D.D.D.D.D.D.D.s.s.s.s.s.s.D.D.D.D.D.D.D.D.D.D.s.s.s.s.s.s.D.D.D.D.D.D.D.U.U.U.s.",
"r.r.D.U.U.U.s.D.D.D.D.D.D.D.D.D.D.s.D.D.D.s.s.D.D.D.D.D.D.D.D.D.D.s.D.D.D.s.s.D.D.D.D.D.D.D.U.U.U.s.",
"v.r.D.U.U.U.s.D.D.D.D.D.D.D.D.D.D.s.D.D.D.D.s.D.D.D.D.D.D.D.D.D.D.s.D.D.D.D.s.D.D.D.D.D.D.D.U.U.U.s.",
"V.r.D.U.U.U.s.D.D.D.D.D.D.U.U.U.U.P.U.U.U.U.P.U.U.U.U.U.U.U.U.U.U.P.U.U.U.U.P.U.U.U.U.U.U.D.U.U.U.s.",
"v.v.D.U.U.U.s.D.D.D.D.U.U.U.U.U.U.P.U.U.U.U.P.U.U.U.U.U.U.U.U.U.U.P.U.U.U.U.P.U.U.U.U.U.U.D.U.U.U.s.",
"r.V.D.U.U.U.s.D.D.D.D.N.N.N.N.N.N.N.N.N.N.N.N.N.N.N.N.N.N.N.N.N.N.N.N.N.N.N.N.U.U.U.U.U.U.D.U.U.U.s.",
"r.v.D.U.U.U.s.D.D.D.U.N.N.N.N.N.N.N.N.N.N.N.N.N.N.N.N.N.N.N.N.N.N.N.N.N.N.N.N.U.U.U.U.U.U.D.U.U.U.s.",
"r.r.D.D.D.D.s.D.D.D.U.N.N.N.N.N.N.N.N.N.z.y.x.a.] ] ] ] i.a.t.z.N.N.N.N.N.N.N.U.U.U.U.U.U.D.D.D.D.s.",
"r.v.D.U.U.U.s.s.s.s.P.N.N.N.N.N.N.B.l.j.[ g | a o o o X 6 g ; y.l.z.N.N.N.N.N.P.P.P.P.P.P.D.U.U.U.s.",
"r.r.D.U.U.U.s.D.D.D.U.N.N.N.N.N.N.n.y & ( U.u 5 V B 8 V 4 - { d & f N.N.N.N.N.U.U.U.U.U.P.D.U.U.U.s.",
"r.r.D.U.U.U.s.D.D.D.U.N.N.N.N.N.h.W Z.Z.{ ^ 9 K 3.6.<.H 8 9 p / { } E k.N.N.N.U.U.U.U.U.P.D.U.U.U.s.",
"r.v.s.s.s.s.s.D.D.D.U.N.N.N.N.d.[ { U.F./ 4 J 4.8.7.,.! H 8 $ Q { Z.( [ h.N.N.U.U.U.U.U.P.s.s.s.s.s.",
"r.r.s.s.s.s.s.s.D.D.U.N.N.N.N.~ ^ R.I.^ 3 H 1.7.5.<.P <.>.V V # h C.K.p ~ N.N.P.U.U.U.U.P.s.s.s.s.s.",
"r.v.D.U.U.U.s.s.s.s.P.N.N.N.N.~ h I.Z.j t 2.4.K C H c.7.>.V V # u ( C.u ` N.N.P.P.P.P.P.P.D.U.U.U.s.",
"r.v.D.U.U.U.s.s.D.D.U.N.N.N.N.j.[ g p 6 H 2.J 7 4 S 4.>.A V V 8 4 - u t.l.N.N.P.U.U.U.U.U.D.U.U.U.s.",
"r.r.D.U.U.U.s.D.D.D.U.N.N.N.N.N.a.. $ Z >.K 7 0 0 7 L A V 8 4 8 7 $ . f.N.N.N.U.U.U.U.U.U.D.U.U.U.s.",
"v.r.D.U.U.U.s.D.D.D.U.N.N.N.N.N.p.o 8 L K 9 w o.o.w 9 G D 5 . 7 V 7 . f.N.N.N.U.U.U.U.U.U.D.U.U.U.s.",
"r.r.D.U.U.U.s.D.D.D.U.N.N.N.N.N.p.o 8 V 5 < e.A.w.e.* ( / o . 9 V 7 . f.N.N.N.U.U.U.U.U.U.D.U.U.U.s.",
"r.r.D.U.U.U.s.D.D.D.U.N.N.N.N.N.p.. o # m w.L._ | L.w.I T ;.X.e o o . h.N.N.N.U.U.U.U.U.U.D.U.U.U.s.",
"r.r.D.U.U.U.s.D.D.D.U.N.N.N.N.N.p.. n U O.&.G.T _ Y.L.M R 0.n R U b . f.N.N.N.U.U.U.U.U.U.D.U.U.U.s.",
"r.r.D.U.U.U.s.D.D.D.U.N.N.N.N.N.p.O $.9.T @ -.+.:.Y.Y.;.+.-.X O.q.#.. f.N.N.N.U.U.U.U.U.U.D.U.U.U.s.",
"r.r.D.U.U.U.s.D.D.D.U.N.N.N.N.N.a.; J.) . + > -.H.T.T.G.@.> X . _ S.& h.N.N.N.U.U.U.U.U.U.D.U.U.U.s.",
"r.r.D.D.D.D.s.D.D.D.U.N.N.N.N.N.n.h.j 1 l N @ < q i i q < + > > 1 W k.m.N.N.N.U.U.U.U.U.U.D.D.D.D.s.",
"r.r.D.U.U.U.s.D.D.D.U.N.N.N.N.N.N.m.y.s z ..%.M x z > z z > k k : y N.N.N.N.N.U.U.U.U.U.U.D.U.U.U.s.",
"r.r.D.U.U.U.s.s.s.s.P.N.N.N.N.N.b.u.u.s < M %... .v k c c l k > + r i.b.N.N.N.P.P.P.P.P.P.D.U.U.U.s.",
"r.r.D.U.U.U.s.D.D.D.U.N.N.N.N.n.y.. . . . . . x c , , > c N , X . . . p.M.N.N.U.U.U.U.U.P.D.U.U.U.s.",
"r.r.s.s.s.s.s.D.D.D.U.N.N.N.N.` & . . . . . . X @ . X X X + X . . . . * t.N.N.U.U.U.U.U.P.s.s.s.s.s.",
"r.r.s.s.s.s.s.D.D.D.U.N.N.N.N.~ . . . . . . . . . . . . . . . . . . . . ` N.N.U.U.U.U.U.P.s.s.s.s.s.",
"r.r.D.U.U.U.s.s.D.D.U.N.N.N.N.i.f . . . . . . . . . . . . . . . . . . f p.N.N.P.U.U.U.U.P.D.U.U.U.s.",
"r.r.D.U.U.U.s.s.s.s.P.N.N.N.N.N.a.r r & . . . . . . . . . . . . & = r h.N.N.N.P.P.P.P.P.P.D.U.U.U.s.",
"r.r.D.U.U.U.s.s.D.D.U.N.N.N.N.N.m.b.b.W . . . . . . . . . . . . ~ b.b.m.N.N.N.P.U.U.U.U.U.D.U.U.U.s.",
"r.r.D.U.U.U.s.D.D.D.U.N.N.N.N.N.N.N.N.g.p.u.i.i.i.i.i.i.i.i.i.i.g.N.N.N.N.N.N.U.U.U.U.U.U.D.U.U.U.s.",
"r.r.D.U.U.U.s.D.D.D.U.N.N.N.N.N.N.N.N.N.N.N.N.N.N.N.N.N.N.N.N.N.N.N.N.N.N.N.N.U.U.U.U.U.U.D.U.U.U.s.",
"r.r.D.U.U.U.s.D.D.D.U.N.N.N.N.N.N.N.N.N.N.N.N.N.N.N.N.N.N.N.N.N.N.N.N.N.N.N.N.U.U.U.U.U.U.D.U.U.U.s.",
"r.r.D.U.U.U.s.D.D.D.U.U.U.U.U.U.U.P.U.U.U.U.P.U.U.U.U.U.U.U.U.U.U.P.U.U.U.U.P.U.U.U.U.U.U.D.U.U.U.s.",
"r.r.D.U.U.U.s.D.D.D.U.U.U.U.U.U.U.P.U.U.U.U.P.U.U.U.U.U.U.U.U.U.U.P.U.U.U.U.P.U.U.U.U.U.U.D.U.U.U.s.",
"r.r.D.D.D.D.D.D.D.D.U.U.U.U.U.U.D.D.D.D.D.U.P.U.U.U.U.U.U.U.U.D.D.D.D.D.U.U.P.U.U.U.U.U.U.D.D.D.D.s.",
"r.r.D.U.U.U.D.D.D.D.D.D.D.D.D.D.D.U.U.U.D.D.D.D.D.D.D.D.D.D.D.D.U.U.U.D.D.D.D.D.D.D.D.D.D.D.U.U.U.s.",
"r.r.D.U.U.U.D.U.U.U.U.U.U.U.U.U.D.U.U.U.D.U.U.U.U.U.U.U.U.U.U.D.U.U.U.D.U.U.U.U.U.U.U.U.U.D.U.U.U.s.",
"r.r.D.U.U.U.D.U.U.U.U.U.U.U.U.U.D.U.U.U.D.U.U.U.U.U.U.U.U.U.U.D.U.U.U.D.U.U.U.U.U.U.U.U.U.D.U.U.U.s.",
"r.r.s.s.s.s.s.U.U.U.U.U.U.U.U.U.s.s.s.s.s.U.U.U.U.U.U.U.U.U.U.s.s.s.s.s.U.U.U.U.U.U.U.U.U.s.s.s.s.s.",
"r.r.d s.s.D.s.s.s.s.s.s.s.s.s.s.s.D.D.D.s.s.s.s.s.s.s.s.s.s.s.s.D.D.D.s.s.s.s.s.s.s.s.s.s.s.D.s.s.d ",
"r.r.d s.D.D.s.D.D.D.D.D.D.D.D.D.s.D.D.D.s.D.D.D.D.D.D.D.D.D.D.s.D.D.D.s.D.D.D.D.D.D.D.D.D.s.D.D.s.d "
};
