/* XPM */
static char *_1965edab8044d1fcdfcfa40fc9bcd22QdTMDB4MKCI81Wjm[] = {
/* columns rows colors chars-per-pixel */
"50 50 246 2 ",
"   c #3C2520",
".  c #292E26",
"X  c #492B1D",
"o  c #592635",
"O  c #51251F",
"+  c #401814",
"@  c #471F21",
"#  c #B27381",
"$  c #42202B",
"%  c #361419",
"&  c #2B1415",
"*  c #754255",
"=  c #9B4948",
"-  c #9E5530",
";  c #A75863",
":  c #9B5F63",
">  c #673539",
",  c #763A25",
"<  c #9B45A0",
"1  c #853B48",
"2  c #1F1611",
"3  c #5F1F23",
"4  c #371C13",
"5  c #BF6AB7",
"6  c #F0EBF9",
"7  c #F5F127",
"8  c #F6EB76",
"9  c #EFEE5D",
"0  c #F6F6CF",
"q  c #F5F8B9",
"w  c #9F5F54",
"e  c #AC5755",
"r  c #8B2532",
"t  c #8F2845",
"y  c #813025",
"u  c #89393A",
"i  c #1D1719",
"p  c #64344A",
"a  c #974E6A",
"s  c #7B4248",
"d  c #5E2336",
"f  c #4F1116",
"g  c #3A142B",
"h  c #470D1A",
"j  c #2B161D",
"k  c #382025",
"l  c #A87B6A",
"z  c #DA9BA8",
"x  c #1D0F14",
"c  c #EE9D5A",
"v  c #F4DEBD",
"b  c #A4541D",
"n  c #C06A52",
"m  c #8F5147",
"M  c #5A404B",
"N  c #6F2C4C",
"B  c #8B5054",
"V  c #D98144",
"C  c #CC771C",
"Z  c #654122",
"A  c #F8F5F2",
"S  c #F7EAB3",
"D  c #F6EAD8",
"F  c #CE6355",
"G  c #E85755",
"H  c #C96B75",
"J  c #3C1322",
"K  c #671823",
"L  c #52182C",
"P  c #641A33",
"I  c #19111C",
"U  c #160F11",
"Y  c #361621",
"T  c #603C61",
"R  c #813B56",
"E  c #A65041",
"W  c #582120",
"Q  c #8E5C2B",
"!  c #DF704F",
"~  c #F2B9A6",
"^  c #CC6A68",
"/  c #B14541",
"(  c #B9726A",
")  c #7A2A63",
"_  c #805E59",
"`  c #C96D88",
"'  c #5D290E",
"]  c #F48871",
"[  c #F6F5A3",
"{  c #E3978E",
"}  c #EE92B5",
"|  c #DC5D70",
" . c #EB888C",
".. c #8A9753",
"X. c #7C243B",
"o. c #421F34",
"O. c #230F16",
"+. c #3A1416",
"@. c #551957",
"#. c #4F1837",
"$. c #631748",
"%. c #471F25",
"&. c #724418",
"*. c #ED9C6A",
"=. c #D88255",
"-. c #995740",
";. c #8E3449",
":. c #AD426E",
">. c #9F4883",
",. c #EF4F75",
"<. c #AF464F",
"1. c #722C43",
"2. c #6D345C",
"3. c #5C2241",
"4. c #802A50",
"5. c #63402E",
"6. c #481766",
"7. c #430F2E",
"8. c #7F3B18",
"9. c #863118",
"0. c #EE9379",
"q. c #F3BC7C",
"w. c #A3496C",
"e. c #55292C",
"r. c #AE7E50",
"t. c #AD7F26",
"y. c #EBCF9B",
"u. c #BDEB74",
"i. c #511D46",
"p. c #481D2C",
"a. c #4D1F39",
"s. c #885580",
"d. c #EDA280",
"f. c #CEA06A",
"g. c #99844D",
"h. c #7D4239",
"j. c #5B1E29",
"k. c #964956",
"l. c #782A2C",
"z. c #F6F9E2",
"x. c #BE2F66",
"c. c #5F403C",
"v. c #D9618F",
"b. c #C26D98",
"n. c #B1405C",
"m. c #725A1E",
"M. c #B67052",
"N. c #70302C",
"B. c #4C1B2A",
"V. c #742C3A",
"C. c #673442",
"Z. c #8E2617",
"A. c #2C113D",
"S. c #E47766",
"D. c #F5DF93",
"F. c #481314",
"G. c #460E23",
"H. c #131713",
"J. c #A6475B",
"K. c #11151D",
"L. c #875F47",
"P. c #D6A14B",
"I. c #F1BF94",
"U. c #BE6E42",
"Y. c #E655C5",
"T. c #EE9734",
"R. c #F7EE8A",
"E. c #F4CD6E",
"W. c #262F3A",
"Q. c #991E32",
"!. c #BC3B4C",
"~. c #F0C5C6",
"^. c #271911",
"/. c #CF9F8D",
"(. c #F5DA53",
"). c #DB8067",
"_. c #BD6D2E",
"`. c #E2703F",
"'. c #191327",
"]. c #281148",
"[. c #4F2B40",
"{. c #504C69",
"}. c #2A185F",
"|. c #F5B761",
" X c #8A5569",
".X c #681616",
"XX c #522A34",
"oX c #4F5248",
"OX c #582515",
"+X c #ECAE31",
"@X c #411E52",
"#X c #F08E54",
"$X c #A94E31",
"%X c #976214",
"&X c #AB5912",
"*X c #E87121",
"=X c #5E1C14",
"-X c #EFC4E5",
";X c #B74818",
":X c #F3ADB8",
">X c #65210E",
",X c #312425",
"<X c #8D2253",
"1X c #B52620",
"2X c #EB5436",
"3X c #6D3039",
"4X c #241513",
"5X c #69366A",
"6X c #F1FCF4",
"7X c #8C2325",
"8X c #B53286",
"9X c #7A606B",
"0X c #6E150E",
"qX c #EF5218",
"wX c #3F2F1C",
"eX c #432141",
"rX c #341629",
"tX c #9F7C81",
"yX c #3E131C",
"uX c #2F1612",
"iX c #EB94E0",
"pX c #8D9727",
"aX c #B1462F",
"sX c #3C167F",
"dX c #21122A",
"fX c #463034",
"gX c #431019",
"hX c #2E2012",
"jX c #541F26",
"kX c #311533",
"lX c #565332",
"zX c #1F193F",
"xX c #3F1039",
"cX c #71287D",
"vX c #24161A",
"bX c #3E122C",
"nX c #250E2A",
"mX c #362638",
"MX c #2D0F1A",
"NX c #2B0F22",
"BX c #20111E",
"VX c #6A352B",
"CX c #261221",
"ZX c #411122",
"AX c #391237",
"SX c #50641C",
/* pixels */
"    . X o O + @ # $ % & * = - ; : > , < 1 : 2 3 ; 4 5 6 6 7 8 9 0 q w e r t y u i O p * a s d f g h ",
"j i k p ; l O + z 1 % x c v b n m O , M w w N B O V C Z C A S S q D F G w H e B J K d o 1 L L P I U ",
"j Y T R 1 O + + E W % Q ! ~ ^ / ( u m : : Q B ) _ H ` ' ] 9 [ [ 8 D D { } |  .: g ..$ o d f P X.o.O.",
"+ +.@.#.$.%.+ X Q &.&...*.=.F F -.> m m m ( ^ ; ;.:.>.= , ,.,.S v 8 D S <./ = : o.d J 1.2.N 3.4.5.s ",
"6.7.W O ' 8.9., u } 0.q.} ^ H w.-.@ e.- r.n Q R - t.>.H >.{ y.9 8 8 u.9.<.r z p i.p.a.s.8.d.f.) g.h.",
"@.@.W j.s k.' l.j.k.D z.( n ( x.T k c.v.E v.b.` # R F Q v.` n.*.*.] m.M.E r ` R y h.N.M y ; B k.f., ",
"i.B.3 +.B.V.V.C.N ) H ^ Z.e H n.A.i M.q E -.3 = <.r./ M . C C 6 S.D.&.~ r V.k., -.w H y , , u k.m , ",
"f F.h G.3.3 V.C.H.H.;.e  .J.n.<.2.K.L.P.n d.~ I.E U.Y.<.# T.C S.C R.y  .X.X.# a - - = 9.u - N ; k.k ",
"E.w u k.: h P 3.N > H v.^ y X.K W.K.Q.! 0.d.] G G D.R./ 0.] S.S.] E.c q.V s P s 8.Q -.a ; w -.s <.!.",
"9.~.e Z &.j.P + H.^.; } u w.:.5.T d n = /.D.D.8 8 (.v E.! ).q.R./.8 b _.`.N E -.m ; a = = n.<.m k.'.",
"S.F.K ].7.[.M {.U W 4.J.a X Z e.}.b { U.T.D.D.D.D.|.E.E.S A I.R.6 |.P.=.! H n U.l.; a  X: B ).m 1 J.",
"0..X].6.o.XXd * U oXB ) OXO a # W t.C c +XD.D.q.E.E.E.E.D.D D.9 6 8 8 |.V ( =.U.l.J.y a B B V.H -.:.",
"~ V C q ; s s s.) @X).L.m +.: # 4 v.C c 8 E.q.~.d.q.D.D.y.q.*.7 6 8 R.|.#XF <.n J.J.- a B a  Xp W o ",
"A q.C 5 : 1 # ` Q {.( m m w , # ` { { d.+X|.I.6 ( q.c d.0.q.R.7 A R.8 |.c e V =.F S._.( ^ $X5 - U.2.",
"{ %X8.&X*X! `.=Xa f - - 9.n - ; b _.-X~.|.c ~ ~ f =.0.d.`.`.+X7 A R.R.c c ! #X).Z.J.J.M.( n $X- 8.3.",
"J.f.V b b v y., P f N.K c *.U.M.U.r.%Xv.|  .`.C &X .d.#X&X;X+XA A 0 q |.|.*.( *.*X6  .0. Xw.u h., $.",
"K./.y.&X`.:XS 6 a e = >XA *..X^ c *.V Z.n c &Xq.c S.r.d.#XM.;XA A [ R.T.c *X=.f H... .] l ; H ( p 3 ",
">.>.>.$X7 [ $X<.n.F ;X=X~.0.;.).0.=.S.{ - 0.E.S q.c b L.8.[ [ A A [ A [ #X{ 6 f H.g.w Z.l :.b.N ,Xj.",
"z < I.<X+ ~ U.f 3.^ n f ^ Q v.S.=.{ ~  .X.| 1XD.*.R.*.0.9.z.A A A [ A R.2X0 ~ f & l 3X+  .e   4X3.d ",
"5X=X; y f ! 0 _.H d.6Xn M.Q | ^ ).S.S.7XR.R.2Xz.[  .[ R.[ R.F.+ ' Z.2X2Xl.h.O a.H.s.. H.1X& ,Xk j i ",
"8X, 1.= c (.9X] *.' c &X*.- ).).! S.f f R.[ 8 0 [  .R.8 [ R.+ Z.9.Z.OX0Xl.V.k _ H.5XqX0. .x.wX  eXrX",
"9X9.+.+.`.@Xe.= ! `.&X#X6X:.( M.H ).m.+.9 A R.0 [ ,.R.8 R.qX+.0X9.N.= 1 1 d N ) @ }.*X0.| 8.i.rXeX2.",
"tX>._.w s a % yX4XU.S `.6X! } ` L t.M.U >XA 0 [ z.[ [ z.z.A [ [ g.=X5.k.R N 2.uX X@XT.d.| 9.5X3 eXO ",
"s.iXP $.* y < B O wXq `.M.#X] n iXD.+ f pX6Xz.R.q q [ 0 0 6XA A A ~ ' = a ) f.H.5.iX! aX$X8.:.Z L 4.",
"uXE 7XJ.p ) V.5.W +.^ $XK sXt.C z.S =X2XpXA [ R.q [ q z.z.[ R.R.A A =Xk.4.'.s H.=X6XaX;X;X8.) 1.* p ",
"sXsX< k.1 C.N h.L.O.g dXX.oXZ U &.0 8.:Xq z.[ [ 0 q z.z.z.6X6XR.A [ U , <X( w H.w 6X1X`.E 8.>.* B m ",
"@X6.OXOXW OXd p.s.7.p fXp.%.F.U f b x A A 6X[ q z.0 z.z.z.z.q A A qXgX1.$._ H.H.M.6X1Xn n hXv.p d X.",
"Q @Xc.3.1.o jX+ O i.%.eXB.rX'.kX5 %XU ,.z.z.[ [ 0 z.z.z.z.6Xq A R.=XF.> P L.2 lXe M.;XU.-.2 ` s n.<.",
"B.$ B.d d jXd %.+ 4 O o.L B.p.zX2XU U Y.6XA z.z.z.z.z.z.z.q z.A *XK =Xj.@.w H.wXw n.! n = kX= o i.rX",
"f F.eXB.d d % % + 7.Y o.o.a.P h.v.`.U 0X6XA z.z.z.z.z.z.z.[ A A 0X4.3 3.eX@ H.fX( ^ b.s <Xl.t I - oX",
"Y 4X_.p.a.O uXuX^.].rXo.B.xXB.& $X`.Y.U 6XA [ z.0 q q [ z.A A z.>XcXV.2.$.L oX,XH z p c._.= #.p.N B.",
"%.4X% %.%.+ ].].3.vX& eXa.eXO bXnX(.;X1X.XA A A A q q z.A A -.f Z.@ & & j J +.mXc.e.d n 1Xb.rX$ rXp.",
"i uX%.i Y vXA.dXO.F.A.@XkX6.e.i.xX-X/.a Q.U K +XA z.z.z.b 0X& R t * 3 B.N H | i L.jXa.@ f 1X& % XX$ ",
"' O @ + @ +.MXNX% O.OX.XBXVX@ a.#.a.3.k.) K O.K.9 A A q +.w .X1 :.5.: a ; R z j.$ + X.P L mXkX$ o.% ",
"X OXU.a.e.+ rXeXd % B O +.$ @ p.a.XXN s 9X* * P .XA A = s j.O.Z m.M.w ` ` T a a.L B.zXl.'.eX$ $ a.$ ",
"6.i.o o 3.> XXp | V.jX% %.J %.%.p.XXjX=XK B C.=XI I c.x O.MXO.jX@ # L.G.7.bXi.p.L j i $ j i $ $ o.fX",
"P.g p p 1.wX5.e.| v.< R o.p.p.$ $ XXXXR ;.3Xj.= jXNXa NXkXxXxX%.  J J rXg bXg g J }.CXmX6.CXkXo.uXMX",
"rXY * s * wX= N.=X .b.i.yX$ $ $ p.B.o 1.C.3Xd j.ZXZXMX6.@Xg rX& uX% MXo.NXCXNXrXbX% A.j B.J kXrX& x ",
"M O.C.* C.4.h.N.l.a cXN rX%.$ p.a.o 3.d d V.L VX#.rXNXNXI AXj j hXMXMXkXNXnXkXrXMXO.AXO.I ZXZXCXrXrX",
"O.$ C.C.N K m C.V.3 +.k rX$ XXc.p.B.d d d 3XXXW P kXCXi x Y & & 4X& x O.CXnXkXNXNXMXT NXNXG.g g mXoX",
"c.%.C.k 2.rXJ.$ r jXi j s.C.2.[.XXXXe.O e.> c.B.B.F.+.O.rXY j & & U x BXBXCXCXI & CXkXCXNXkXnXi.oXrX",
"g MXp.%.o   k c.L.,Xi  X5 B [.Y fXXX%.jXuXXXC.+.% Y i j & +.& & hXuXO.BXBXBXBXCXg NXnXCXNXNXNX7.. kX",
"bXY yX%.V.V.%.* 3 _ P a l.s N @ e.XX$ p.vX.XoXA.vX& Y & & nXO.& kX].nXU I I i vXCXJ NXI CXdXNXbX#.i ",
"g Y p.p.9X: s iX= W.K.u 1 = 1 %.$ %.k k rX....B.xXJ x j & O.O.x x I BXI I i ,XBXI BXNXNXnXnXAXrX#.& ",
"rXZXp.XX1 1 N.1.;.K.Q.J.k.j.a.a.p.$ %.eXkXxXx x MXxXCXCXO.O.kXU O.I BXI I vXM I U AXNXA.nX@X[.g x 4.",
"CXa.B.p.1 3XW X.w H.M c.u @ i.[.XX$ $ @ I NX% x kXA.& A.nXO.x U MXI I I I vXi I I AXNXCXyXx Y 3.T.2X",
"kXg B.> XXXXo R = N.p 1 wXN = fXfX  %.eXNXMXMX& . NXO.O.x BXx x I dXBXBXBXvXCXi I J J & VXOXy y E n.",
"rXJ 3.4.B.j.e.= XXM XXfX,Xt W.a.fXfXo.eXJ Y MXkXlXkXA.x U U x x I BXBXCXI % vXH.'.I U H.SXpXR.[ E ;.",
"J ZXxXB.B.Q.2X[.C. X X> H.n.O w.[.$ $ k J Y % j   BXx x O.x x U U I CXI 6.AXi 4XH.Z.y *X1Xq z. .5 ;.",
"%  X>.$ p.e.[.1.s s M XXk % O [.k.fXCXY % MX@XAXuX@.U U x x vXU I I g U A.@XrXY K.l.N.( _.6X6X$X9.;."
};
